#N canvas 0 87 1033 652 10;
#X obj 485 114 osc;
#N canvas 0 54 1920 1026 GUI 0;
#X obj 4 1 cnv 15 1024 640 empty empty empty 20 12 0 14 -262144 -66577
0;
#X obj 321 321 image meeblip.gif;
#X obj 92 232 knob 52 52 0 127 0 0 attackControlSend attackControlReceive
empty 0 -8 0 8 -262144 -1 -1 0 1;
#X obj 199 232 knob 52 52 0 127 0 0 decayControlSend decayControlReceive
empty 0 -8 0 8 -262144 -1 -1 0 1;
#X obj 92 372 knob 52 52 0 127 0 0 widthControlSend widthControlReceive
empty 0 -8 0 8 -262144 -1 -1 0 1;
#X obj 199 372 knob 52 52 0 127 0 0 detuneControlSend detuneControlReceive
empty 0 -8 0 8 -262144 -1 -1 0 1;
#X obj 390 232 knob 52 52 0 127 0 0 cutoffControlSend cutoffControlReceive
empty 0 -8 0 8 -262144 -1 -1 0 1;
#X obj 390 372 knob 52 52 0 127 0 0 rateControlSend rateControlReceive
empty 0 -8 0 8 -262144 -1 -1 0 1;
#X obj 497 372 knob 52 52 0 127 0 0 depthControlSend depthControlReceive
empty 0 -8 0 8 -262144 -1 -1 0 1;
#X obj 443 100 knob 52 52 0 127 0 0 empty empty empty 0 -8 0 8 -262144
-1 -1 0 1;
#X obj 288 257 hradio 32 1 0 2 SustainControlSend SustainControlReceive
empty 0 -8 0 10 -262144 -1 -1 0;
#X obj 288 397 hradio 32 1 0 2 octaveControlSend octaveControlReceive
empty 0 -8 0 10 -262144 -65 -65 0;
#X obj 663 99 bng 52 250 50 0 empty empty Randomizer 0 -10 1 12 -262144
-65 -65;
#X obj 665 232 knob 52 52 0 127 0 0 portamentoControlSend portamentoControlReceive
Portamento 0 -10 1 12 -262144 -1 -1 0 1;
#X obj 772 232 knob 52 52 0 127 0 0 vcfEnvelopeAmountControlSend vcfEnvelopeAmountControlReceive
VCF_Envelope_Amount 0 -10 1 12 -262144 -1 -1 0 1;
#X obj 193 504 hradio 32 1 0 2 sweepControlSend sweepControlReceive
empty 0 -8 0 10 -262144 -65 -65 0;
#X obj 386 504 hradio 32 1 0 2 lfoDestControlSend lfoDestControlReceive
empty 0 -8 0 10 -262144 -65 -65 1;
#X obj 738 -28 ctlin 17 1;
#X obj 813 -28 ctlin 13 1;
#X obj 663 -28 ctlin 14 1;
#X obj 600 -28 pgmin 10;
#N canvas 152 160 1478 430 randomizer 0;
#X obj 12 108 random 128;
#X obj 86 108 random 128;
#X obj 160 108 random 2;
#X obj 223 108 random 128;
#X obj 297 108 random 128;
#X obj 372 108 random 128;
#X obj 447 108 random 2;
#X obj 510 108 random 128;
#X obj 585 108 random 128;
#X obj 660 108 random 2;
#X obj 723 108 random 2;
#X obj 786 108 random 128;
#X obj 861 108 random 128;
#X obj 12 130 outlet;
#X obj 86 130 outlet;
#X obj 160 130 outlet;
#X obj 223 130 outlet;
#X obj 297 130 outlet;
#X obj 372 130 outlet;
#X obj 447 130 outlet;
#X obj 510 130 outlet;
#X obj 585 130 outlet;
#X obj 660 130 outlet;
#X obj 723 130 outlet;
#X obj 786 130 outlet;
#X obj 861 130 outlet;
#X obj 447 11 inlet;
#X obj 786 160 s portamentoControlReceive;
#X obj 861 216 s vcfEnvelopeAmountControlReceive;
#X obj 936 188 s lfoRandomControlReceive;
#X obj 999 160 s lfoNoteRetriggerControlReceive;
#X obj 1062 244 s oscillatorBWaveControlReceive;
#X obj 936 108 random 2;
#X obj 999 108 random 2;
#X obj 936 130 outlet;
#X obj 999 130 outlet;
#X obj 1062 108 random 2;
#X obj 1062 130 outlet;
#X obj 12 188 s attackControlReceive;
#X obj 86 216 s decayControlReceive;
#X obj 160 188 s sustainControlReceive;
#X obj 223 216 s cutoffControlReceive;
#X obj 297 160 s widthControlReceive;
#X obj 372 188 s detuneControlReceive;
#X obj 447 216 s octaveControlReceive;
#X obj 660 216 s sweepControlReceive;
#X obj 723 188 s lfoDestControlReceive;
#X obj 585 160 s depthControlReceive;
#X obj 510 188 s rateControlReceive;
#X connect 0 0 13 0;
#X connect 0 0 38 0;
#X connect 1 0 14 0;
#X connect 1 0 39 0;
#X connect 2 0 15 0;
#X connect 2 0 40 0;
#X connect 3 0 16 0;
#X connect 3 0 41 0;
#X connect 4 0 17 0;
#X connect 4 0 42 0;
#X connect 5 0 18 0;
#X connect 5 0 43 0;
#X connect 6 0 19 0;
#X connect 6 0 44 0;
#X connect 7 0 20 0;
#X connect 7 0 48 0;
#X connect 8 0 21 0;
#X connect 8 0 47 0;
#X connect 9 0 22 0;
#X connect 9 0 45 0;
#X connect 10 0 23 0;
#X connect 10 0 46 0;
#X connect 11 0 24 0;
#X connect 11 0 27 0;
#X connect 12 0 25 0;
#X connect 12 0 28 0;
#X connect 26 0 0 0;
#X connect 26 0 1 0;
#X connect 26 0 2 0;
#X connect 26 0 3 0;
#X connect 26 0 4 0;
#X connect 26 0 5 0;
#X connect 26 0 6 0;
#X connect 26 0 7 0;
#X connect 26 0 8 0;
#X connect 26 0 9 0;
#X connect 26 0 10 0;
#X connect 26 0 11 0;
#X connect 26 0 12 0;
#X connect 26 0 32 0;
#X connect 26 0 33 0;
#X connect 26 0 36 0;
#X connect 32 0 34 0;
#X connect 32 0 29 0;
#X connect 33 0 35 0;
#X connect 33 0 30 0;
#X connect 36 0 37 0;
#X connect 36 0 31 0;
#X restore 1035 201 pd randomizer;
#N canvas 0 107 1905 360 MIDIControls 0;
#X msg -178 64 \$1 54 1;
#X obj 734 64 moses 1;
#X msg 734 92 0 64 1;
#X msg 789 92 127 64 1;
#X obj 1121 312 outlet;
#X obj -49 8 r decayControlSend;
#X obj -178 8 r attackControlSend;
#X obj -167 36 inlet;
#X obj -38 36 inlet;
#X obj 745 36 inlet;
#X obj 734 8 r sustainControlSend;
#X obj 85 36 inlet;
#X obj 74 8 r cutoffControlSend;
#X msg -49 64 \$1 53 1;
#X msg 74 64 \$1 52 1;
#X obj 214 36 inlet;
#X obj 203 8 r widthControlSend;
#X msg 203 64 \$1 51 1;
#X obj 337 36 inlet;
#X obj 326 8 r detuneControlSend;
#X msg 326 64 \$1 50 1;
#X obj 466 36 inlet;
#X msg 455 64 \$1 49 1;
#X obj 601 36 inlet;
#X msg 590 64 \$1 48 1;
#X obj 869 64 moses 1;
#X obj 880 36 inlet;
#X obj 869 8 r octaveControlSend;
#X msg 869 92 0 65 1;
#X msg 924 92 127 65 1;
#X obj 998 64 moses 1;
#X obj 1009 36 inlet;
#X obj 998 8 r sweepControlSend;
#X msg 998 92 0 66 1;
#X msg 1053 92 127 66 1;
#X obj 1121 64 moses 1;
#X obj 1132 36 inlet;
#X msg 1121 92 0 67 1;
#X msg 1176 92 127 67 1;
#X obj 1121 8 r lfoDestControlSend;
#X obj 1256 8 r portamentoControlSend;
#X obj 1409 8 r vcfEnvelopeAmountControlSend;
#X msg 1256 64 \$1 55 1;
#X msg 1409 64 \$1 55 1;
#X obj 1267 36 inlet;
#X obj 1420 36 inlet;
#X obj 1604 64 moses 1;
#X obj 1615 36 inlet;
#X obj 1751 64 moses 1;
#X obj 1762 36 inlet;
#X obj 1940 64 moses 1;
#X obj 1951 36 inlet;
#X obj 1604 8 r lfoRandomControlSend;
#X obj 1751 8 r lfoNoteRetriggerControlSend;
#X obj 1940 8 r oscillatorBWaveControlSend;
#X msg 1604 92 0 68 1;
#X msg 1659 92 127 68 1;
#X msg 1751 92 0 69 1;
#X msg 1806 92 127 69 1;
#X msg 1940 92 0 70 1;
#X msg 1995 92 127 70 1;
#X obj 455 8 r RateControlSend;
#X obj 590 8 r DepthControlSend;
#X connect 0 0 4 0;
#X connect 1 0 2 0;
#X connect 1 1 3 0;
#X connect 2 0 4 0;
#X connect 3 0 4 0;
#X connect 5 0 13 0;
#X connect 6 0 0 0;
#X connect 7 0 0 0;
#X connect 8 0 13 0;
#X connect 9 0 1 0;
#X connect 10 0 1 0;
#X connect 11 0 14 0;
#X connect 12 0 14 0;
#X connect 13 0 4 0;
#X connect 14 0 4 0;
#X connect 15 0 17 0;
#X connect 16 0 17 0;
#X connect 17 0 4 0;
#X connect 18 0 20 0;
#X connect 19 0 20 0;
#X connect 20 0 4 0;
#X connect 21 0 22 0;
#X connect 22 0 4 0;
#X connect 23 0 24 0;
#X connect 24 0 4 0;
#X connect 25 0 28 0;
#X connect 25 1 29 0;
#X connect 26 0 25 0;
#X connect 27 0 25 0;
#X connect 28 0 4 0;
#X connect 29 0 4 0;
#X connect 30 0 33 0;
#X connect 30 1 34 0;
#X connect 31 0 30 0;
#X connect 32 0 30 0;
#X connect 35 0 37 0;
#X connect 35 1 38 0;
#X connect 36 0 35 0;
#X connect 37 0 4 0;
#X connect 38 0 4 0;
#X connect 39 0 35 0;
#X connect 40 0 42 0;
#X connect 41 0 43 0;
#X connect 42 0 4 0;
#X connect 43 0 4 0;
#X connect 44 0 42 0;
#X connect 45 0 43 0;
#X connect 46 0 55 0;
#X connect 46 1 56 0;
#X connect 47 0 46 0;
#X connect 48 0 57 0;
#X connect 48 1 58 0;
#X connect 49 0 48 0;
#X connect 50 0 59 0;
#X connect 50 1 60 0;
#X connect 51 0 50 0;
#X connect 52 0 46 0;
#X connect 53 0 48 0;
#X connect 54 0 50 0;
#X connect 55 0 4 0;
#X connect 56 0 4 0;
#X connect 57 0 4 0;
#X connect 58 0 4 0;
#X connect 59 0 4 0;
#X connect 60 0 4 0;
#X connect 61 0 22 0;
#X connect 62 0 24 0;
#X restore 1035 229 pd MIDIControls;
#X obj 776 99 tgl 52 0 empty empty Random_Notes 0 -10 1 12 -262144
-1 -1 0 1;
#X obj 664 377 hradio 32 1 0 2 lfoRandomControlSend lfoRandomControlReceive
LFO_Random 0 -8 1 12 -262144 -1 -1 1;
#X obj 664 437 hradio 32 1 0 2 lfoNoteRetriggerControlSend lfoNoteRetriggerControlReceive
LFO_Note_Retrigger 0 -8 1 12 -262144 -1 -1 0;
#X obj 663 497 hradio 32 1 0 2 oscillatorBWaveControlSend oscillatorBWaveControlReceive
Oscillator_B_Wave_(pulse/sawtooth) 0 -8 1 12 -262144 -1 -1 1;
#N canvas 1331 562 450 300 randomNotes 0;
#X obj 117 104 noteout 1;
#X obj 117 60 random 127;
#X obj 117 82 makenote 127 1000;
#X obj 117 38 metro 2000;
#X obj 117 16 inlet;
#X connect 1 0 2 0;
#X connect 2 0 0 0;
#X connect 2 1 0 1;
#X connect 3 0 1 0;
#X connect 4 0 3 0;
#X restore 1035 151 pd randomNotes;
#X obj 958 -28 ctlin 25 10;
#X obj 1033 -28 ctlin 26 10;
#X obj 883 -28 ctlin 24 10;
#X connect 12 0 21 0;
#X connect 17 0 13 0;
#X connect 18 0 14 0;
#X connect 19 0 12 0;
#X connect 20 0 12 0;
#X connect 23 0 27 0;
#X connect 28 0 25 0;
#X connect 29 0 26 0;
#X connect 30 0 24 0;
#X coords 0 -1 1 1 1024 640 2 0 0;
#X restore -342 -217 pd GUI;
